# xmcd
#
# Track frame offsets:
#	150
#	14161
#	30192
#	45247
#	57976
#	74132
#	92128
#	109783
#	125114
#	139434
#	155414
#
# Disc length: 2369 seconds
#
# Revision: 1
# Processed by: cddbd v1.5.1PL0 Copyright (c) Steve Scherf et al.
# Submitted via: audiograbber 1.82.02
#
DISCID=9e093f0b
DTITLE=Shelly Fairchild - Ride
DYEAR=2005
DGENRE=Country
TTITLE0=Shelly Fairchild - Kiss Me
TTITLE1=Shelly Fairchild - Ready To Fall
TTITLE2=Shelly Fairchild - Tiny Town
TTITLE3=Shelly Fairchild - You Don't Lie Here Anymore
TTITLE4=Shelly Fairchild - I Want To Love You
TTITLE5=Shelly Fairchild - Eight Crazy Hours (In The Stor
TTITLE6=Shelly Fairchild - Down Into Muddy Water
TTITLE7=Shelly Fairchild - Ride
TTITLE8=Shelly Fairchild - Time Machine
TTITLE9=Shelly Fairchild - I'm Going Back
TTITLE10=Shelly Fairchild - Fear Of Flying
EXTD=
EXTT0=
EXTT1=
EXTT2=
EXTT3=
EXTT4=
EXTT5=
EXTT6=
EXTT7=
EXTT8=
EXTT9=
EXTT10=
PLAYORDER=
